HIERARCHY
ROOT Hips
{
	OFFSET -0.179506 -22.333345 2.821913
	CHANNELS 6 Xposition Yposition Zposition Zrotation Yrotation Xrotation 
	JOINT LeftUpLeg
	{
		OFFSET 6.951974 -9.140623 -0.681533
		CHANNELS 3 Zrotation Yrotation Xrotation
		JOINT LeftLeg
		{
			OFFSET 3.427654 -37.519855 -0.449580
			CHANNELS 3 Zrotation Yrotation Xrotation
			JOINT LeftFoot
			{
				OFFSET -1.359570 -39.796059 -4.369333
				CHANNELS 3 Zrotation Yrotation Xrotation
				JOINT LeftToe
				{
					OFFSET 2.635814 -5.579078 11.928840
					CHANNELS 3 Zrotation Yrotation Xrotation
					End Site
					{
						OFFSET 0.000000 0.000000 0.000000
					}
				}
			}
		}
	}
	JOINT RightUpLeg
	{
		OFFSET -6.767048 -9.052170 -0.431982
		CHANNELS 3 Zrotation Yrotation Xrotation
		JOINT RightLeg
		{
			OFFSET -3.829005 -38.256897 -0.885003
			CHANNELS 3 Zrotation Yrotation Xrotation
			JOINT RightFoot
			{
				OFFSET 1.577377 -39.841461 -4.231180
				CHANNELS 3 Zrotation Yrotation Xrotation
				JOINT RightToe
				{
					OFFSET -2.537174 -4.814398 12.334795
					CHANNELS 3 Zrotation Yrotation Xrotation
					End Site
					{
						OFFSET 0.000000 0.000000 0.000000
					}
				}
			}
		}
	}
	JOINT Spine
	{
		OFFSET -0.253288 10.896323 -2.669631
		CHANNELS 3 Zrotation Yrotation Xrotation
		JOINT Spine1
		{
			OFFSET 0.548704 13.518043 0.109247
			CHANNELS 3 Zrotation Yrotation Xrotation
			JOINT Spine2
			{
				OFFSET 0.145701 5.292222 2.542457
				CHANNELS 3 Zrotation Yrotation Xrotation
				JOINT Neck
				{
					OFFSET -0.277840 21.387037 -4.285703
					CHANNELS 3 Zrotation Yrotation Xrotation
					JOINT Head
					{
						OFFSET 0.515184 6.496960 5.134897
						CHANNELS 3 Zrotation Yrotation Xrotation
						End Site
						{
							OFFSET 0.000000 0.000000 0.000000
						}
					}
				}
				JOINT LeftShoulder
				{
					OFFSET 7.884473 12.174932 -3.408961
					CHANNELS 3 Zrotation Yrotation Xrotation
					JOINT LeftArm
					{
						OFFSET 9.097692 3.046888 -0.886815
						CHANNELS 3 Zrotation Yrotation Xrotation
						JOINT LeftForeArm
						{
							OFFSET 25.961220 -1.277207 -2.745643
							CHANNELS 3 Zrotation Yrotation Xrotation
							JOINT LeftHand
							{
								OFFSET 24.923361 0.898606 -0.117091
								CHANNELS 3 Zrotation Yrotation Xrotation
								End Site
								{
									OFFSET 0.000000 0.000000 0.000000
								}
							}
						}
					}
				}
				JOINT RightShoulder
				{
					OFFSET -8.175920 11.883285 -3.861528
					CHANNELS 3 Zrotation Yrotation Xrotation
					JOINT RightArm
					{
						OFFSET -9.601238 3.255117 -0.914307
						CHANNELS 3 Zrotation Yrotation Xrotation
						JOINT RightForeArm
						{
							OFFSET -25.374195 -1.332924 -2.140099
							CHANNELS 3 Zrotation Yrotation Xrotation
							JOINT RightHand
							{
								OFFSET -25.529810 0.777228 -0.555919
								CHANNELS 3 Zrotation Yrotation Xrotation
								End Site
								{
									OFFSET 0.000000 0.000000 0.000000
								}
							}
						}
					}
				}
			}
		}
	}
}
MOTION
Frames: 12
Frame Time: 0.033333
8.220095 10.072664 98.968369 176.572183 -1.151230 85.951910 4.437596 1.791200 10.464656 -3.689587 -2.404612 -5.002406 3.497307 7.586687 -7.014570 nan nan nan -4.624219 -2.843748 10.184499 4.267842 -2.107454 -5.492096 6.022129 -3.678892 -2.519392 nan nan nan -0.049710 1.645787 3.451532 0.235113 -3.059065 6.007765 0.922564 -0.251742 -0.627275 -5.207878 3.398535 1.168052 -0.055475 -2.556292 0.396204 -28.518316 -8.421990 6.994427 -56.623011 -12.328198 10.488908 8.569017 -26.657968 6.436744 -7.709536 -16.293737 -2.797739 27.036742 13.608794 7.762255 55.467916 10.993948 13.321554 -10.654646 25.785072 -3.027173 6.528360 12.205165 -9.193192 
8.203588 10.071615 98.958733 176.604166 -1.172917 85.971272 4.410356 1.840953 10.393090 -3.682006 -2.460602 -4.939601 3.526612 7.580731 -7.013481 nan nan nan -4.671897 -2.855379 10.142943 4.303592 -2.180604 -5.445068 6.046612 -3.629744 -2.530298 nan nan nan -0.020834 1.619462 3.462296 0.237047 -3.046461 5.992133 0.863783 -0.218927 -0.623970 -5.216987 3.413972 1.162440 -0.076569 -2.538813 0.389956 -28.510974 -8.404228 7.010144 -56.547247 -12.111193 10.462610 8.549608 -26.137409 6.230103 -7.631710 -16.152023 -2.666461 27.006468 13.559876 7.766677 55.524383 10.752253 13.318128 -10.771815 25.481193 -3.126482 6.385058 12.095008 -9.044423 
8.195403 10.064128 98.959061 176.660504 -1.172118 85.967411 4.431975 1.893271 10.353580 -3.675479 -2.540265 -4.888182 3.514938 7.562291 -7.025055 nan nan nan -4.668925 -2.881846 10.150509 4.312275 -2.183987 -5.451953 6.110432 -3.604886 -2.490981 nan nan nan 0.010508 1.613620 3.547730 0.224915 -3.069788 5.928766 0.828355 -0.199301 -0.635324 -5.230577 3.366174 1.123761 -0.067299 -2.509417 0.428503 -28.496128 -8.333410 7.038904 -56.470942 -11.890676 10.495215 8.699868 -25.595092 6.443017 -7.833838 -16.057929 -2.428841 27.045894 13.464445 7.788325 55.506852 10.565376 13.257916 -10.809997 25.145750 -3.169227 6.626128 12.097015 -9.094993 
8.201621 10.054574 98.963081 176.712398 -1.154950 85.954999 4.488306 1.950072 10.348803 -3.676332 -2.614116 -4.883323 3.424730 7.529397 -7.027344 nan nan nan -4.619370 -2.904589 10.183319 4.280016 -2.125955 -5.485272 6.142412 -3.653265 -2.468788 nan nan nan 0.032208 1.640268 3.642342 0.205619 -3.071525 5.861150 0.832900 -0.206292 -0.643552 -5.236471 3.299350 1.077509 -0.054595 -2.489545 0.545926 -28.511311 -8.243643 7.124608 -56.408731 -11.697524 10.541150 8.887887 -25.086773 6.888471 -7.954522 -15.832491 -2.291208 27.046472 13.295395 7.833862 55.485659 10.432578 13.171273 -10.727034 24.860477 -3.163154 6.754273 12.035579 -9.270835 
8.205030 10.048162 98.962448 176.756999 -1.137382 85.958739 4.512390 1.969456 10.314188 -3.666581 -2.636344 -4.854509 3.289616 7.568999 -7.048609 nan nan nan -4.585307 -2.898690 10.194713 4.264811 -2.085400 -5.501818 6.152755 -3.736404 -2.493120 nan nan nan 0.059191 1.665617 3.697279 0.190769 -3.025096 5.798626 0.846598 -0.253675 -0.587913 -5.237612 3.267419 0.969702 -0.082063 -2.508198 0.666438 -28.530140 -8.091283 7.187638 -56.415157 -11.594666 10.441931 8.981542 -24.495778 6.957763 -7.910545 -15.868909 -2.502400 27.021270 13.092492 7.845924 55.441905 10.338131 13.109967 -10.536626 24.595379 -3.117962 6.603737 12.030326 -9.442092 
8.207012 10.041899 98.961861 176.810312 -1.136389 85.981558 4.519456 1.994712 10.262900 -3.669533 -2.742678 -4.826885 3.245616 7.625365 -7.103965 nan nan nan -4.570808 -2.881538 10.183347 4.252231 -2.028009 -5.536053 6.131370 -3.866135 -2.506060 nan nan nan 0.051503 1.660103 3.705543 0.197609 -2.981697 5.755433 0.852725 -0.287393 -0.491730 -5.270730 3.232497 0.872840 -0.054142 -2.504813 0.686610 -28.508026 -7.956272 7.177928 -56.419717 -11.511496 10.358597 8.935683 -23.782774 6.782365 -7.653998 -16.066856 -3.021968 27.039699 12.891660 7.809895 55.365977 10.247769 13.075976 -10.332092 24.301537 -3.037302 6.430281 12.015766 -9.590129 
8.203056 10.033584 98.967484 176.888099 -1.158996 86.008882 4.512981 2.175444 10.180914 -3.638310 -2.991360 -4.762554 3.303107 7.551915 -7.086781 nan nan nan -4.590380 -2.905163 10.146901 4.245142 -2.016432 -5.531064 6.067344 -3.924880 -2.524470 nan nan nan 0.007011 1.581513 3.742587 0.222109 -2.986271 5.732786 0.838685 -0.252347 -0.480492 -5.296725 3.223377 0.892723 -0.026717 -2.401884 0.597945 -28.480404 -7.824492 7.136109 -56.325032 -11.327327 10.348297 8.811945 -23.292181 6.628882 -7.607941 -15.990202 -3.110468 27.072165 12.746396 7.794329 55.324135 10.059245 12.999051 -10.263700 24.034329 -3.103103 6.576850 11.955200 -9.629163 
8.209775 10.050924 98.976089 176.871473 -1.177145 85.969314 4.508925 2.127073 10.276162 -3.657701 -3.032681 -4.829684 3.390812 7.568568 -6.985301 nan nan nan -4.622023 -2.933711 10.190110 4.254414 -1.962468 -5.508678 6.012173 -3.952049 -2.536625 nan nan nan -0.012499 1.597585 3.826273 0.210050 -2.975919 5.725069 0.840839 -0.228822 -0.469081 -5.278524 3.255777 0.919736 -0.053782 -2.288296 0.546334 -28.484249 -7.689924 7.143294 -56.231924 -11.144037 10.247263 8.850863 -22.977546 6.701626 -7.952452 -15.727038 -2.754461 27.084233 12.624058 7.867551 55.359804 9.860002 12.907230 -10.347026 23.771739 -3.176795 6.824010 11.918071 -9.576303 
8.229077 10.078150 98.981285 176.797971 -1.169653 85.892057 4.512349 1.803051 10.474831 -3.736864 -2.903067 -4.987023 3.449931 7.804105 -6.930821 nan nan nan -4.618582 -2.896120 10.292702 4.270773 -1.851456 -5.527091 6.033627 -4.074284 -2.582780 nan nan nan 0.019973 1.695538 3.941176 0.162721 -2.944521 5.635171 0.874223 -0.247452 -0.349706 -5.312689 3.214455 0.851511 -0.069115 -2.230501 0.572550 -28.453422 -7.528975 7.150647 -56.302387 -11.067779 10.133986 8.978298 -22.414184 6.948854 -8.082810 -15.648749 -2.746001 27.022843 12.428608 7.935397 55.467585 9.765217 12.822910 -10.380750 23.341057 -3.122783 6.740491 11.910680 -9.684770 
8.223529 10.081978 98.981895 176.878783 -1.162368 85.862578 4.531061 1.715286 10.492756 -3.796424 -2.926973 -4.982211 3.424417 7.886853 -6.971766 nan nan nan -4.630669 -2.920451 10.353984 4.302955 -1.828118 -5.566425 6.098424 -4.163013 -2.618843 nan nan nan 0.056272 1.714730 4.021833 0.139245 -2.949836 5.543230 0.883934 -0.312229 -0.236683 -5.367714 3.124427 0.802662 -0.084673 -2.199604 0.539525 -28.448678 -7.415367 7.195547 -56.334950 -10.935427 10.060946 8.974408 -21.829159 6.894976 -7.849710 -15.647334 -3.039643 26.966354 12.213755 7.939225 55.531584 9.658984 12.671674 -10.317990 22.856842 -3.187591 6.613901 11.894475 -9.871900 
8.217072 10.081007 98.981148 176.969589 -1.141670 85.829930 4.542892 1.694318 10.498091 -3.773542 -2.938885 -4.961080 3.412960 7.855197 -6.959566 nan nan nan -4.608031 -3.001718 10.397015 4.288000 -1.852064 -5.561371 6.098131 -4.157293 -2.599077 nan nan nan 0.083016 1.728426 4.122075 0.146429 -2.962669 5.501399 0.884296 -0.358716 -0.191764 -5.382812 3.070648 0.733676 -0.128539 -2.194278 0.537598 -28.467429 -7.316481 7.307409 -56.274326 -10.668720 9.974406 8.945374 -21.569533 6.752538 -7.776241 -15.500875 -3.258794 26.967356 12.040814 7.957901 55.501529 9.429564 12.568333 -10.271210 22.565248 -3.256907 6.661692 11.843183 -9.966179 
8.210566 10.079026 98.973869 177.037808 -1.116292 85.840209 4.544584 1.662613 10.469045 -3.708606 -2.970807 -4.954767 3.375319 7.854923 -6.957875 nan nan nan -4.582364 -3.040622 10.399945 4.296774 -1.861998 -5.570207 6.087206 -4.188140 -2.606244 nan nan nan 0.111424 1.728899 4.201377 0.150415 -2.937514 5.428937 0.884150 -0.380272 -0.134036 -5.362479 3.023060 0.667293 -0.156032 -2.223255 0.457907 -28.566300 -7.154194 7.456881 -56.170863 -10.351247 9.882353 9.158184 -21.477122 6.853288 -8.090715 -15.550260 -3.090306 26.984239 11.873129 7.940174 55.469481 9.077091 12.552472 -10.287153 22.406974 -3.051745 6.787303 11.807540 -9.831465 
